<svg id="Layer_2" data-name="Layer 2" xmlns="http://www.w3.org/2000/svg" xmlns:xlink="http://www.w3.org/1999/xlink" viewBox="0 0 1017 429"><defs><clipPath id="clip-path"><rect id="color" width="1017" height="429" rx="16" ry="16" transform="translate(1017 429) rotate(-180)" fill="none"/></clipPath></defs><title>challenge_category_me_time-01</title><rect id="color-2" data-name="color" width="1017" height="429" rx="16" ry="16" transform="translate(1017 429) rotate(-180)" fill="#1a237e"/><g clip-path="url(#clip-path)"><path id="white" d="M277.29,36.89C371.55,124.94,443.9,246.82,528,351.11A884.17,884.17,0,0,0,597.31,428H0V0H233.72Q256.11,17.16,277.29,36.89Z" fill="#fff"/><path id="_3" data-name="3" d="M0,428V0H226.23a510.4,510.4,0,0,1,62.89,54.75c77.84,79.7,136,187.14,204.77,280.19,24.68,33.42,51.67,65.43,80.68,93Z" fill="#7986cb"/><path id="_2" data-name="2" d="M0,99.6c8.41-6.14,16.8-12.31,25.24-18.28,35.38-25,73.61-47,113.78-46.76,40.7.21,79.46,23.34,113.65,52.35s65.17,64.2,99.56,92.79c19.41,16.14,40.35,30.23,62.22,39.23,26.08,39.17,51.92,78.74,79.44,116a780.11,780.11,0,0,0,57.56,69.66A96.52,96.52,0,0,1,531.78,428h-129c-15.64-7.4-31.05-15.83-46.65-23.42-62.54-30.43-128.67-47.42-195.2-53.49C105.75,346,46.4,346.94.77,305.76L0,305Z" fill="#5c6bc0"/><path id="_1" data-name="1" d="M0,144.28a293.89,293.89,0,0,1,76-32.85c69.55-18.68,143.4-8.63,208.56,28.38C352.05,178.14,408.28,243.07,468.26,299q12.63,18.22,25.63,35.91c24.68,33.42,51.67,65.43,80.68,93H0Z" fill="#3949ab"/><path d="M520.36,370a647.28,647.28,0,0,0,54.21,59H0V370Z" fill="#1a237e"/></g></svg>