<svg id="Layer_2" data-name="Layer 2" xmlns="http://www.w3.org/2000/svg" xmlns:xlink="http://www.w3.org/1999/xlink" viewBox="0 0 1017 429"><defs><clipPath id="clip-path"><rect id="color" width="1017" height="429" rx="16" ry="16" fill="none"/></clipPath></defs><title>challenge_category_build_skill</title><rect id="color-2" data-name="color" width="1017" height="429" rx="16" ry="16" fill="#0d47a1"/><g clip-path="url(#clip-path)"><path id="white" d="M739.71,36.89C645.45,124.94,573.1,246.82,489,351.11A884.17,884.17,0,0,1,419.69,428H1017V0H783.28Q760.89,17.16,739.71,36.89Z" fill="#fff"/><path id="_3" data-name="3" d="M1017,428V0H790.77a510.4,510.4,0,0,0-62.89,54.75c-77.84,79.7-136,187.14-204.77,280.19-24.68,33.42-51.67,65.43-80.68,93Z" fill="#64b5f6"/><path id="_2" data-name="2" d="M1017,99.6c-8.41-6.14-16.8-12.31-25.24-18.28-35.38-25-73.61-47-113.78-46.76-40.7.21-79.46,23.34-113.65,52.35s-65.17,64.2-99.56,92.79c-19.41,16.14-40.35,30.23-62.22,39.23-26.08,39.17-51.92,78.74-79.44,116a780.11,780.11,0,0,1-57.56,69.66A96.52,96.52,0,0,0,485.22,428h129c15.64-7.4,31.05-15.83,46.65-23.42,62.54-30.43,128.67-47.42,195.2-53.49,55.23-5,114.58-4.14,160.21-45.32l.77-.72Z" fill="#42a5f5"/><path id="_1" data-name="1" d="M1017,144.28a293.89,293.89,0,0,0-76-32.85c-69.55-18.68-143.4-8.63-208.56,28.38C664.95,178.14,608.72,243.07,548.74,299q-12.63,18.22-25.63,35.91c-24.68,33.42-51.67,65.43-80.68,93H1017Z" fill="#1e88e5"/><path d="M496.64,370a647.28,647.28,0,0,1-54.21,59H1017V370Z" fill="#0d47a1"/></g></svg>